# xmcd CD database file
#
# Track frame offsets:
#	182
#	14512
#	27625
#	41467
#	55295
#	70667
#	84855
#	100272
#	115712
#	130072
#	144622
#	158487
#	173040
#	187090
#	198335
#	211620
#	224832
#	238047
#	251962
#	264350
#	278777
#	293535
#	307462
#
# Disc length: 4271 seconds
#
# Revision: 0
# Processed by: cddbd v1.5.1PL2 Copyright (c) Steve Scherf et al.
# Submitted via: CDex 1.51
#
DISCID=5510ad17
DTITLE=Kokomo Arnold - 1934-1937 King of the bottleneck guitar
DYEAR=1991
DGENRE=Blues
TTITLE0=Milk Cow Blues
TTITLE1=Old Original Kokomo Blues
TTITLE2=Back to the Woods
TTITLE3=Sagefield Woman Blues
TTITLE4=Old Black Cat Blues (Jinx Blues)
TTITLE5=Sissy Man Blues
TTITLE6=Front Door Blues (32 20 Blues)
TTITLE7=Back Door Blues
TTITLE8=The Twelves (Dirty Dozens)
TTITLE9=Biscuit Roller Blues
TTITLE10=Chain Gang Blues
TTITLE11=How Long How Long Blues
TTITLE12=Bo-Weevil Blues
TTITLE13=Busy Bootin'
TTITLE14=Policy Wheel Blues
TTITLE15=Milk Cow Blues no. 4
TTITLE16=Model 'T' Woman Blues
TTITLE17=I'll Be Up Some Day
TTITLE18=Mister Charlie
TTITLE19=Back Fence Picket Blues
TTITLE20=Wild Water Blues
TTITLE21=Red Beans and Rice
TTITLE22=Buddie Brown Blues (Rolling Time)
EXTD=YEAR: 1991
EXTT0=
EXTT1=
EXTT2=
EXTT3=
EXTT4=
EXTT5=
EXTT6=
EXTT7=
EXTT8=
EXTT9=
EXTT10=
EXTT11=
EXTT12=
EXTT13=
EXTT14=
EXTT15=
EXTT16=
EXTT17=
EXTT18=
EXTT19=
EXTT20=
EXTT21=
EXTT22=
PLAYORDER=
